<?xml version="1.0" encoding="UTF-8" standalone="no"?>
<!-- Generator: Adobe Illustrator 16.0.0, SVG Export Plug-In . SVG Version: 6.00 Build 0)  -->

<svg
   version="1.1"
   id="Layer_1"
   x="0px"
   y="0px"
   width="48px"
   height="48px"
   viewBox="0 0 48 48"
   enable-background="new 0 0 48 48"
   xml:space="preserve"
   sodipodi:docname="ImportImages.svg"
   inkscape:version="1.1.2 (0a00cf5339, 2022-02-04)"
   xmlns:inkscape="http://www.inkscape.org/namespaces/inkscape"
   xmlns:sodipodi="http://sodipodi.sourceforge.net/DTD/sodipodi-0.dtd"
   xmlns="http://www.w3.org/2000/svg"
   xmlns:svg="http://www.w3.org/2000/svg"><defs
   id="defs322"><clipPath
     id="clip0"><rect
       width="150.95799"
       height="160.146"
       fill="#ffffff"
       transform="translate(0.305664,0.977173)"
       id="rect66"
       x="0"
       y="0" /></clipPath></defs><sodipodi:namedview
   id="namedview320"
   pagecolor="#ffffff"
   bordercolor="#666666"
   borderopacity="1.0"
   inkscape:pageshadow="2"
   inkscape:pageopacity="0.0"
   inkscape:pagecheckerboard="0"
   showgrid="false"
   inkscape:zoom="17.5625"
   inkscape:cx="23.97153"
   inkscape:cy="23.97153"
   inkscape:window-width="1920"
   inkscape:window-height="1048"
   inkscape:window-x="0"
   inkscape:window-y="0"
   inkscape:window-maximized="1"
   inkscape:current-layer="Layer_1"
   showguides="false" />
<g
   clip-path="url(#clip0)"
   id="g64"
   transform="matrix(0.18442854,0,0,0.18442854,11.551017,7.4871184)"><path
     d="m 71.0822,33.4387 v -9.6718 c -3.216,-1.3783 -6.1739,-3.3203 -7.3507,-7.0752 -0.6861,-2.3953 -0.5524,-4.9513 0.3804,-7.26186 1.7563,-4.95206 8.0763,-8.653801 13.8251,-8.12217 4.6344,0.42859 7.7973,3.48924 8.4596,8.18466 1.1525,8.16817 -0.9661,12.08967 -8.3106,14.94807 -0.1188,1.9407 -0.2454,4.0167 -0.4122,6.7372 1.9638,-1.486 3.4248,-2.6457 4.9423,-3.7267 2.1396,-1.6326 4.3613,-3.1548 6.6559,-4.5608 7.4166,-4.2085 14.594,-3.4038 21.539,1.2772 3.16,2.1298 6.362,4.2045 9.615,6.1886 5.862,3.5809 12.431,5.8497 19.253,6.65 1.778,0.2323 3.537,0.6017 5.258,1.1052 6.205,1.759 7.765,7.3242 3.159,11.7702 -6.381,6.1591 -14.28,9.3043 -22.969,10.1516 -8.856,0.8018 -17.783,0.1718 -26.4392,-1.866 -6.0179,-1.3632 -12.072,-2.5662 -18.1149,-3.8153 -1.1854,-0.2454 -2.3943,-0.3754 -3.7379,-0.5808 v 29.9944 c 4.5819,-1.759 8.6834,-3.1891 11.5411,-6.6841 1.0245,-1.3219 1.7478,-2.8518 2.1187,-4.4828 0.6504,-2.7061 -0.1241,-3.5567 -2.5683,-4.9737 -2.0156,-1.1917 -3.8895,-2.6091 -5.5848,-4.2248 -0.6386,-0.571 -1.0665,-1.3401 -1.2155,-2.1837 -0.1483,-0.8436 -0.0092,-1.7127 0.3958,-2.4677 0.3137,-0.7988 0.8998,-1.4608 1.6552,-1.8682 0.7555,-0.4073 1.6304,-0.5336 2.4705,-0.3567 1.9165,0.3761 4.1093,0.8722 5.5132,2.0878 10.4311,9.0356 8.6026,20.9586 -0.2362,27.6848 -1.7722,1.3507 -3.7235,2.4744 -5.8565,3.8763 1.0041,0.3347 1.8108,0.6124 2.6253,0.8729 3.9984,1.1742 7.71,3.1629 10.9018,5.8414 5.3107,4.6453 5.8737,10.5793 1.5007,16.0973 -3.8727,4.888 -9.0506,7.98 -14.7423,10.291 -1.6297,0.661 -3.2955,1.233 -5.3761,2.006 1.5004,1.072 2.691,1.833 3.7805,2.719 4.0785,3.314 6.629,7.295 5.3898,12.849 -0.3288,1.483 -0.972,2.878 -1.8863,4.091 -0.9136,1.213 -2.0773,2.217 -3.4116,2.942 -1.4951,0.891 -2.8446,2.025 -4.4828,3.21 1.9651,0.9 3.5442,1.477 4.9731,2.32 1.2746,0.754 2.4547,1.849 1.757,3.57 -0.6774,1.672 -2.2112,1.888 -3.6958,1.425 -2.5447,-0.795 -5.0243,-1.794 -7.691,-2.764 -0.8414,2.118 -0.7692,5.246 -3.7306,5.241 -1.3698,0 -2.7363,-1.784 -4.454,-3.008 -0.8708,0.313 -2.301,0.922 -3.7856,1.335 -1.2294,0.342 -2.5999,0.339 -3.1971,-1.046 -0.5848,-1.357 0.2895,-2.406 1.3495,-3.128 1.5575,-1.061 3.2043,-1.991 4.4421,-2.749 -3.0414,-1.723 -6.2436,-3.32 -9.2182,-5.266 -7.6791,-5.022 -6.5944,-13.17 -2.2488,-18.365 0.6459,-0.772 1.3599,-1.487 2.311,-2.519 -6.629,-3.728 -12.358,-8.25 -12.4512,-16.566 -0.0899,-8.067 4.3782,-13.6324 11.2337,-17.8959 -0.9189,-0.747 -1.6144,-1.2372 -2.2215,-1.8194 -1.4349,-1.249 -2.7774,-2.6004 -4.0169,-4.0444 -4.2255,-5.4423 -4.636,-11.1964 -1.2313,-17.2616 2.8223,-5.0319 7.0515,-8.3524 12.19,-10.6627 2.2033,-0.9904 3.9277,-0.5737 5.0946,1.0612 0.3019,0.4115 0.5179,0.8795 0.6352,1.3762 0.1174,0.4966 0.1335,1.0118 0.0478,1.5149 -0.0857,0.503 -0.2715,0.9837 -0.5467,1.4134 -0.2752,0.4297 -0.634,0.7997 -1.0551,1.0881 -1.7116,1.2666 -3.5751,2.314 -5.5468,3.118 -1.3647,0.5107 -2.5871,1.3409 -3.564,2.4219 -0.977,1.081 -1.6799,2.3805 -2.0501,3.7897 -0.3029,0.9648 -0.407,1.9808 -0.3054,2.9863 0.1015,1.0062 0.4064,1.9809 0.8961,2.865 2.4382,4.507 6.6288,6.6749 11.275,7.8104 1.6356,0.3997 3.6381,-0.6997 5.827,-1.1946 0.2841,-10.527 0.5644,-20.8962 0.8565,-31.7101 -1.2556,0.0173 -2.5092,0.1037 -3.7556,0.2586 -9.0575,1.652 -18.109,3.306 -27.1461,5.0538 -8.201,1.5838 -16.4024,2.7626 -24.7274,0.9885 C 11.1863,59.7855 6.93172,58.3993 3.40128,55.4129 1.42439,53.7393 -0.102926,51.7197 0.899958,48.9808 1.3508,47.6143 2.19935,46.4134 3.33655,45.5318 c 2.24741,-1.4716 4.64203,-2.7047 7.14535,-3.6794 8.6486,-3.3919 16.6224,-7.8571 23.5625,-14.0877 1.503,-1.3494 3.0942,-2.6023 4.6661,-3.8723 3.3618,-2.7186 7.1422,-3.5088 11.3815,-2.6457 6.3665,1.2949 11.4904,4.9099 16.5744,8.6189 1.4118,1.0285 2.7277,2.2001 4.4158,3.5731 z m 5.4785,14.3988 c 5.739,0.8723 11.0599,1.5752 16.3428,2.5072 8.8365,1.5654 17.6365,3.1714 26.6945,2.8616 6.753,-0.2051 13.336,-2.1719 19.094,-5.7055 0.796,-0.5758 1.553,-1.2051 2.265,-1.8831 -2.737,-0.571 -5.038,-0.9227 -7.265,-1.5377 -9.416,-2.5997 -17.842,-7.1653 -25.63,-13.0001 -5.811,-4.3535 -9.9426,-4.4697 -16.036,-0.5605 -0.9497,0.5966 -1.866,1.2442 -2.7455,1.9401 -3.4904,2.815 -6.8863,5.7521 -10.4627,8.4517 -1.4078,1.0619 -2.1212,2.1659 -2.0563,3.8979 -0.0131,1.013 -0.0794,2.0245 -0.2008,3.0303 z M 71.6277,43.927 C 69.0253,41.9882 66.9841,40.6394 65.139,39.0609 60.8358,35.288 55.9877,32.1867 50.7582,29.8617 47.065,28.2648 43.7109,28.4887 40.5671,31.481 31.8424,39.7843 21.6516,45.7602 10.3678,49.9201 c -1.12387,0.5142 -2.21615,1.0947 -3.27108,1.7386 2.21317,0.9681 3.70178,1.7334 5.26518,2.2834 6.9722,2.4547 14.09,2.3628 21.2284,0.9438 8.7949,-1.7459 17.5531,-3.6427 26.3454,-5.382 3.8186,-0.7561 7.6791,-1.2837 11.692,-1.9427 z m -1.549,52.581 c -4.988,0.0079 -12.8582,3.737 -15.5446,7.245 -2.9653,3.872 -3.0028,8.663 0.6871,11.362 3.1767,2.324 6.9794,3.884 10.6693,5.382 1.9855,0.804 3.3927,-0.453 3.5161,-2.645 0.2809,-5.02 0.4805,-10.042 0.6564,-15.068 0.0767,-2.093 0.0157,-4.1882 0.0157,-6.276 z m 7.055,21.089 c 2.5092,-0.941 4.8464,-1.679 7.0648,-2.679 3.5994,-1.623 6.9125,-3.726 9.4605,-6.817 1.7806,-2.161 1.7721,-3.422 -0.2567,-5.192 -4.576,-3.9929 -10.0977,-5.341 -16.2686,-5.7151 z m -8.7864,12.864 c -4.1349,-0.538 -8.7917,2.56 -9.5005,5.859 -0.174,0.713 -0.1371,1.462 0.1061,2.154 0.2431,0.693 0.682,1.3 1.2636,1.749 2.1915,1.857 4.4355,3.652 7.0281,5.776 0.3866,-5.448 0.7378,-10.396 1.1027,-15.535 z M 79.4814,13.9481 C 79.5123,9.64184 77.9607,8.25579 73.283,7.94796 71.1702,7.80882 69.7197,8.88581 69.1762,12.6145 c -0.4377,2.9994 2.0209,5.185 5.8342,5.4266 3.5016,0.2251 4.4493,-0.6399 4.471,-4.0903 z M 75.714,133.389 c -0.2284,2.242 -0.5428,4.447 -0.6563,6.662 -0.1129,2.252 -0.025,4.513 -0.025,7.103 2.7659,-1.583 3.9899,-3.73 4.9035,-6.17 1.549,-4.126 0.4739,-6.188 -4.2222,-7.592 z"
     fill="#000000"
     id="path62" /></g><path
   fill-rule="evenodd"
   clip-rule="evenodd"
   fill="#333333"
   stroke="#333333"
   stroke-width="0.25"
   stroke-miterlimit="10"
   d="  M1.917,36.04c0-10.107,0-20.245,0-30.382C2.155,5.174,2.5,4.792,3.036,4.548c13.718,0,27.485,0,41.254,0  c1.201-0.189,1.788,0.818,1.789,1.812c0.007,5.935,0.004,11.871,0.004,17.803c0,3.632,0.003,7.265-0.005,10.896  c0,0.384-0.06,0.767-0.088,1.116c-0.392,0.438-0.729,0.842-1.307,0.905c-0.108,0.012-0.21,0.073-0.318,0.09  c-0.116,0.016-0.237,0.004-0.354,0.004c-13.39,0-26.778,0-40.166,0.003c-0.671,0-1.261-0.172-1.701-0.708  C2.062,36.371,2.019,36.236,1.917,36.04z M5.075,7.693c0,8.769,0,17.474,0,26.179c2.604,0.107,37.241,0.062,37.85-0.045  c0-8.71,0-17.417,0-26.134C30.3,7.693,17.701,7.693,5.075,7.693z"
   id="path307" />
<path
   fill-rule="evenodd"
   clip-rule="evenodd"
   fill="none"
   d="M5.075,7.693c12.626,0,25.225,0,37.85,0c0,8.717,0,17.424,0,26.134  c-0.609,0.107-35.246,0.152-37.85,0.045C5.075,25.167,5.075,16.461,5.075,7.693z M27.767,14.488  c-2.28,3.542-4.545,7.065-6.811,10.588c-0.07-0.062-0.127-0.154-0.172-0.148c-0.306,0.034-0.581-0.087-0.87-0.14  c-0.31-0.056-0.623-0.036-0.942-0.131c-0.328-0.097-0.708-0.003-1.061-0.026c-0.339-0.022-0.677-0.074-1.01-0.142  c-0.383-0.081-0.717,0.152-1.081,0.142c-0.785-0.024-1.544,0.075-2.306,0.277c-0.62,0.167-1.246,0.299-1.825,0.583  c-0.703,0.345-1.375,0.754-1.966,1.26c-0.535,0.459-0.904,1.075-1.244,1.687c-0.221,0.401-0.36,0.847-0.553,1.314  c0,0.103,0,0.26,0,0.406c10.74,0,21.457,0,32.244,0c-1.38-3.934-2.699-7.828-3.945-11.747c-0.006-0.018-0.032-0.035-0.052-0.043  c-0.021-0.007-0.048-0.001-0.084-0.001c-0.47,0.641-0.956,1.279-1.412,1.938c-0.452,0.658-0.909,1.312-1.488,2.086  c-0.085-0.175-0.117-0.267-0.169-0.346c-0.551-0.841-1.067-1.708-1.669-2.511c-0.836-1.118-1.611-2.277-2.411-3.42  C28.565,15.579,28.175,15.054,27.767,14.488z M14.966,12.669c-0.99,0-0.987,0.004-2.033,0.567c-0.591,0.319-0.978,0.842-1.314,1.381  c-0.308,0.491-0.437,1.105-0.415,1.662c0.035,0.895,0.292,1.752,0.958,2.44c0.708,0.73,1.517,1.177,2.556,1.225  c0.781,0.036,1.456-0.184,2.115-0.572c0.556-0.33,0.92-0.827,1.283-1.327c0.369-0.508,0.249-1.165,0.47-1.723  c-0.202-0.543-0.108-1.161-0.428-1.671c-0.344-0.548-0.729-1.072-1.292-1.406C16.267,12.89,15.643,12.565,14.966,12.669z"
   id="path309" />
<path
   fill-rule="evenodd"
   clip-rule="evenodd"
   fill="#707070"
   stroke="#707070"
   stroke-miterlimit="10"
   d="M27.767,14.488  c0.408,0.566,0.799,1.091,1.172,1.627c0.8,1.143,1.575,2.302,2.411,3.42c0.602,0.803,1.118,1.67,1.669,2.511  c0.052,0.079,0.084,0.171,0.169,0.346c0.579-0.774,1.036-1.428,1.488-2.086c0.456-0.66,0.942-1.297,1.412-1.938  c0.036,0,0.062-0.006,0.084,0.001c0.02,0.008,0.046,0.025,0.052,0.043c1.246,3.919,2.565,7.813,3.945,11.747  c-10.787,0-21.503,0-32.244,0c0-0.146,0-0.304,0-0.406c0.193-0.468,0.333-0.913,0.553-1.314c0.34-0.611,0.709-1.228,1.244-1.687  c0.591-0.506,1.263-0.915,1.966-1.26c0.58-0.284,1.206-0.416,1.825-0.583c0.762-0.202,1.521-0.302,2.306-0.277  c0.364,0.011,0.698-0.223,1.081-0.142c0.333,0.067,0.671,0.119,1.01,0.142c0.354,0.023,0.733-0.07,1.061,0.026  c0.319,0.095,0.632,0.075,0.942,0.131c0.289,0.053,0.564,0.174,0.87,0.14c0.045-0.006,0.103,0.086,0.172,0.148  C23.221,21.553,25.486,18.03,27.767,14.488z"
   id="path311" />
<path
   fill-rule="evenodd"
   clip-rule="evenodd"
   fill="#707070"
   stroke="#707070"
   stroke-miterlimit="10"
   d="M15.395,12.669  c0.677-0.104,1.301,0.221,1.901,0.576c0.562,0.333,0.948,0.857,1.292,1.406c0.319,0.511,0.226,1.128,0.428,1.671  c-0.222,0.558-0.102,1.215-0.47,1.723c-0.363,0.5-0.727,0.997-1.283,1.327c-0.659,0.389-1.334,0.608-2.115,0.572  c-1.039-0.048-1.849-0.495-2.556-1.225c-0.665-0.688-0.923-1.546-0.958-2.44c-0.022-0.557,0.107-1.17,0.415-1.662  c0.336-0.539,0.723-1.062,1.314-1.381C14.407,12.673,14.404,12.669,15.395,12.669z"
   id="path313" />
<circle
   fill="#FFFFFF"
   stroke="#333333"
   stroke-width="2"
   stroke-miterlimit="10"
   cx="30.628"
   cy="33.934"
   r="9.542"
   id="circle315" />
<path
   fill-rule="evenodd"
   clip-rule="evenodd"
   fill="#333333"
   stroke="#333333"
   stroke-width="0.25"
   stroke-miterlimit="10"
   d="  M29.625,30.637c-0.736,0.714-1.321,1.269-1.892,1.839c-0.459,0.457-0.943,0.753-1.531,0.237c-0.438-0.386-0.376-0.94,0.202-1.536  c1.095-1.125,2.202-2.239,3.33-3.33c0.651-0.63,1.092-0.639,1.724-0.029c1.157,1.116,2.285,2.266,3.419,3.407  c0.421,0.423,0.685,0.893,0.21,1.441c-0.396,0.459-0.934,0.417-1.535-0.14c-0.594-0.55-1.16-1.131-1.892-1.85  c-0.04,0.555-0.085,0.886-0.085,1.217c-0.007,2.315-0.002,4.631-0.01,6.946c-0.001,0.35,0.064,0.777-0.106,1.031  c-0.206,0.305-0.627,0.62-0.963,0.63c-0.247,0.008-0.637-0.429-0.732-0.739c-0.133-0.433-0.059-0.932-0.061-1.402  c-0.002-2.197,0.002-4.396-0.003-6.593C29.699,31.471,29.662,31.174,29.625,30.637z"
   id="path317" />
</svg>
