<?xml version="1.0" encoding="UTF-8" standalone="no"?>
<svg
   xmlns:dc="http://purl.org/dc/elements/1.1/"
   xmlns:cc="http://creativecommons.org/ns#"
   xmlns:rdf="http://www.w3.org/1999/02/22-rdf-syntax-ns#"
   xmlns:svg="http://www.w3.org/2000/svg"
   xmlns="http://www.w3.org/2000/svg"
   xmlns:sodipodi="http://sodipodi.sourceforge.net/DTD/sodipodi-0.dtd"
   xmlns:inkscape="http://www.inkscape.org/namespaces/inkscape"
   id="Capa_1"
   data-name="Capa 1"
   viewBox="0 0 520.14 156.02"
   version="1.1"
   sodipodi:docname="logo_nova_mint.svg"
   inkscape:version="0.92.5 (2060ec1f9f, 2020-04-08)">
  <metadata
     id="metadata31">
    <rdf:RDF>
      <cc:Work
         rdf:about="">
        <dc:format>image/svg+xml</dc:format>
        <dc:type
           rdf:resource="http://purl.org/dc/dcmitype/StillImage" />
        <dc:title></dc:title>
      </cc:Work>
    </rdf:RDF>
  </metadata>
  <sodipodi:namedview
     pagecolor="#ffffff"
     bordercolor="#666666"
     borderopacity="1"
     objecttolerance="10"
     gridtolerance="10"
     guidetolerance="10"
     inkscape:pageopacity="0"
     inkscape:pageshadow="2"
     inkscape:window-width="1366"
     inkscape:window-height="705"
     id="namedview29"
     showgrid="false"
     inkscape:zoom="0.67097318"
     inkscape:cx="17.88447"
     inkscape:cy="78.010002"
     inkscape:window-x="-8"
     inkscape:window-y="-8"
     inkscape:window-maximized="1"
     inkscape:current-layer="Capa_1" />
  <defs
     id="defs4">
    <style
       id="style2">
      .cls-1 {
        fill: #050f35;
        stroke-width: 0px;
      }
    </style>
  </defs>
  <g
     id="g12"
     style="fill:#04e5bb;fill-opacity:1">
    <path
       class="cls-1"
       d="m83.95,100.86c11.26,0,20.61,8.09,22.54,18.76.43,2.37,2.5,4.08,4.91,4.08h18.36c0-25.26-20.5-45.7-45.82-45.69v22.85h.02,0Z"
       id="path6"
       style="fill:#04e5bb;fill-opacity:1" />
    <path
       class="cls-1"
       d="m56.85,78.02h-18.12c0,24.92,20.22,45.08,45.2,45.09v-22.55c-11.11,0-20.34-7.98-22.24-18.52-.42-2.34-2.47-4.03-4.84-4.03h0Z"
       id="path8"
       style="fill:#04e5bb;fill-opacity:1" />
    <path
       class="cls-1"
       d="m83.95,32.93v22.55c11.1,0,20.32,7.98,22.23,18.5.42,2.34,2.47,4.03,4.84,4.03h18.12c0-24.91-20.22-45.07-45.2-45.08Z"
       id="path10"
       style="fill:#04e5bb;fill-opacity:1" />
  </g>
  <g
     id="g26"
     style="fill:#04e5bb;fill-opacity:1">
    <path
       class="cls-1"
       d="m467.69,57.69l-12.82,27.08-6.17,13.3s3.61-9.79-1.49-20.71c-.12-.27-.23-.52-.33-.75l-8.92-18.93h-13.85l20.94,42.51c.84,1.71,2.58,2.79,4.49,2.79h6.5c1.9,0,3.65-1.09,4.49-2.79l20.88-42.51h-13.72Z"
       id="path14"
       style="fill:#04e5bb;fill-opacity:1" />
    <path
       class="cls-1"
       d="m262.81,71.08c-2.82-2.62-5.51-3.33-9.83-3.33h-10.75c-3.86,0-6.22.98-6.22,3,0,1.5.92,2.35,5.24,3.07l17.56,1.57c10.09,1.5,12.91,7.91,12.91,14.38,0,8.37-6.75,13.79-17.95,13.79h-11.01c-10.29,0-17.17-3.27-20.44-9.47l10.42-6.6c2.62,4.45,5.76,5.56,10.22,5.56h11.01c3.87,0,5.9-1.24,5.9-3.53s-1.71-3.07-4.78-3.66l-18.74-2.02c-8.98-1.44-12.19-6.73-12.19-12.68,0-8.82,6.82-13.99,18.61-13.99h10.55c8.12,0,14.09,2.16,17.76,6.21l-8.26,7.71h-.01Z"
       id="path16"
       style="fill:#04e5bb;fill-opacity:1" />
    <path
       class="cls-1"
       d="m278.06,102.97v-45.22h12.32v45.22h-12.32Z"
       id="path18"
       style="fill:#04e5bb;fill-opacity:1" />
    <path
       class="cls-1"
       d="m401.19,57.2c15.27,0,24.24,9.28,24.24,23.14v.06c0,13.92-8.98,23.2-24.24,23.2h-10.62c-15.33,0-24.31-9.28-24.31-23.2v-.06c0-13.86,8.98-23.14,24.31-23.14h10.62Zm0,35.23c7.93,0,12.12-4.9,12.12-12.03v-.06c0-7.06-4.19-11.96-12.12-11.96h-10.62c-7.93,0-12.19,4.9-12.19,11.96v.06c0,7.12,4.26,12.03,12.19,12.03h10.62Z"
       id="path20"
       style="fill:#04e5bb;fill-opacity:1" />
    <path
       class="cls-1"
       d="m347.98,57.78l-18.15,22.81-.02-.02-3.92,4.91s3.79-4.77-.38-10.29l-13.9-17.41h-11.6v45.22h12.12v-26.47l14.48,18.36h6.42l14.48-18.36v26.47h12.06v-45.22h-11.6Z"
       id="path22"
       style="fill:#04e5bb;fill-opacity:1" />
    <path
       class="cls-1"
       d="m218.6,80.11c0-13.88-8.99-23.17-24.29-23.17h-10.63c-15.36,0-24.35,9.3-24.35,23.17v.06c0,13.94,8.99,23.24,24.35,23.24h10.66c1.75,0,3.42.69,4.61,1.96l8.89,9.56,9.58-7.98-2.95-3.14c-2.39-2.65-5.32-3.41-8.97-1.75,4.31-2.39,6.4-4.73,7.34-5.67,3.73-4.03,5.76-9.57,5.76-16.2v-.06h0Zm-12.14.06c0,7.13-4.26,12.04-12.14,12.04h-10.64c-7.94,0-12.21-4.91-12.21-12.04v-.06c0-7.07,4.26-11.98,12.21-11.98h10.64c7.88,0,12.14,4.91,12.14,11.98v.06Z"
       id="path24"
       style="fill:#04e5bb;fill-opacity:1" />
  </g>
</svg>
