<?xml version="1.0" encoding="UTF-8" standalone="no"?>
<!-- Generator: Adobe Illustrator 22.0.1, SVG Export Plug-In . SVG Version: 6.00 Build 0)  -->

<svg
   version="1.1"
   id="Layer_1"
   x="0px"
   y="0px"
   viewBox="0 0 48 48"
   style="enable-background:new 0 0 48 48;"
   xml:space="preserve"
   sodipodi:docname="ImageGrid.svg"
   inkscape:version="1.1.2 (0a00cf5339, 2022-02-04)"
   xmlns:inkscape="http://www.inkscape.org/namespaces/inkscape"
   xmlns:sodipodi="http://sodipodi.sourceforge.net/DTD/sodipodi-0.dtd"
   xmlns="http://www.w3.org/2000/svg"
   xmlns:svg="http://www.w3.org/2000/svg"><defs
   id="defs793"><clipPath
     id="clip0"><rect
       width="150.95799"
       height="160.146"
       fill="#ffffff"
       transform="translate(0.305664,0.977173)"
       id="rect66"
       x="0"
       y="0" /></clipPath></defs><sodipodi:namedview
   id="namedview791"
   pagecolor="#ffffff"
   bordercolor="#666666"
   borderopacity="1.0"
   inkscape:pageshadow="2"
   inkscape:pageopacity="0.0"
   inkscape:pagecheckerboard="0"
   showgrid="false"
   inkscape:zoom="17.5625"
   inkscape:cx="23.97153"
   inkscape:cy="23.97153"
   inkscape:window-width="1920"
   inkscape:window-height="1048"
   inkscape:window-x="0"
   inkscape:window-y="0"
   inkscape:window-maximized="1"
   inkscape:current-layer="Layer_1" />
<style
   type="text/css"
   id="style766">
	.st0{fill:#707070;stroke:#707070;stroke-width:0.25;stroke-linecap:round;stroke-linejoin:round;stroke-miterlimit:10;}
	.st1{fill:#333333;}
</style>
<g
   clip-path="url(#clip0)"
   id="g64"
   transform="matrix(0.18442854,0,0,0.18442854,10.584645,8.3026366)"><path
     d="m 71.0822,33.4387 v -9.6718 c -3.216,-1.3783 -6.1739,-3.3203 -7.3507,-7.0752 -0.6861,-2.3953 -0.5524,-4.9513 0.3804,-7.26186 1.7563,-4.95206 8.0763,-8.653801 13.8251,-8.12217 4.6344,0.42859 7.7973,3.48924 8.4596,8.18466 1.1525,8.16817 -0.9661,12.08967 -8.3106,14.94807 -0.1188,1.9407 -0.2454,4.0167 -0.4122,6.7372 1.9638,-1.486 3.4248,-2.6457 4.9423,-3.7267 2.1396,-1.6326 4.3613,-3.1548 6.6559,-4.5608 7.4166,-4.2085 14.594,-3.4038 21.539,1.2772 3.16,2.1298 6.362,4.2045 9.615,6.1886 5.862,3.5809 12.431,5.8497 19.253,6.65 1.778,0.2323 3.537,0.6017 5.258,1.1052 6.205,1.759 7.765,7.3242 3.159,11.7702 -6.381,6.1591 -14.28,9.3043 -22.969,10.1516 -8.856,0.8018 -17.783,0.1718 -26.4392,-1.866 -6.0179,-1.3632 -12.072,-2.5662 -18.1149,-3.8153 -1.1854,-0.2454 -2.3943,-0.3754 -3.7379,-0.5808 v 29.9944 c 4.5819,-1.759 8.6834,-3.1891 11.5411,-6.6841 1.0245,-1.3219 1.7478,-2.8518 2.1187,-4.4828 0.6504,-2.7061 -0.1241,-3.5567 -2.5683,-4.9737 -2.0156,-1.1917 -3.8895,-2.6091 -5.5848,-4.2248 -0.6386,-0.571 -1.0665,-1.3401 -1.2155,-2.1837 -0.1483,-0.8436 -0.0092,-1.7127 0.3958,-2.4677 0.3137,-0.7988 0.8998,-1.4608 1.6552,-1.8682 0.7555,-0.4073 1.6304,-0.5336 2.4705,-0.3567 1.9165,0.3761 4.1093,0.8722 5.5132,2.0878 10.4311,9.0356 8.6026,20.9586 -0.2362,27.6848 -1.7722,1.3507 -3.7235,2.4744 -5.8565,3.8763 1.0041,0.3347 1.8108,0.6124 2.6253,0.8729 3.9984,1.1742 7.71,3.1629 10.9018,5.8414 5.3107,4.6453 5.8737,10.5793 1.5007,16.0973 -3.8727,4.888 -9.0506,7.98 -14.7423,10.291 -1.6297,0.661 -3.2955,1.233 -5.3761,2.006 1.5004,1.072 2.691,1.833 3.7805,2.719 4.0785,3.314 6.629,7.295 5.3898,12.849 -0.3288,1.483 -0.972,2.878 -1.8863,4.091 -0.9136,1.213 -2.0773,2.217 -3.4116,2.942 -1.4951,0.891 -2.8446,2.025 -4.4828,3.21 1.9651,0.9 3.5442,1.477 4.9731,2.32 1.2746,0.754 2.4547,1.849 1.757,3.57 -0.6774,1.672 -2.2112,1.888 -3.6958,1.425 -2.5447,-0.795 -5.0243,-1.794 -7.691,-2.764 -0.8414,2.118 -0.7692,5.246 -3.7306,5.241 -1.3698,0 -2.7363,-1.784 -4.454,-3.008 -0.8708,0.313 -2.301,0.922 -3.7856,1.335 -1.2294,0.342 -2.5999,0.339 -3.1971,-1.046 -0.5848,-1.357 0.2895,-2.406 1.3495,-3.128 1.5575,-1.061 3.2043,-1.991 4.4421,-2.749 -3.0414,-1.723 -6.2436,-3.32 -9.2182,-5.266 -7.6791,-5.022 -6.5944,-13.17 -2.2488,-18.365 0.6459,-0.772 1.3599,-1.487 2.311,-2.519 -6.629,-3.728 -12.358,-8.25 -12.4512,-16.566 -0.0899,-8.067 4.3782,-13.6324 11.2337,-17.8959 -0.9189,-0.747 -1.6144,-1.2372 -2.2215,-1.8194 -1.4349,-1.249 -2.7774,-2.6004 -4.0169,-4.0444 -4.2255,-5.4423 -4.636,-11.1964 -1.2313,-17.2616 2.8223,-5.0319 7.0515,-8.3524 12.19,-10.6627 2.2033,-0.9904 3.9277,-0.5737 5.0946,1.0612 0.3019,0.4115 0.5179,0.8795 0.6352,1.3762 0.1174,0.4966 0.1335,1.0118 0.0478,1.5149 -0.0857,0.503 -0.2715,0.9837 -0.5467,1.4134 -0.2752,0.4297 -0.634,0.7997 -1.0551,1.0881 -1.7116,1.2666 -3.5751,2.314 -5.5468,3.118 -1.3647,0.5107 -2.5871,1.3409 -3.564,2.4219 -0.977,1.081 -1.6799,2.3805 -2.0501,3.7897 -0.3029,0.9648 -0.407,1.9808 -0.3054,2.9863 0.1015,1.0062 0.4064,1.9809 0.8961,2.865 2.4382,4.507 6.6288,6.6749 11.275,7.8104 1.6356,0.3997 3.6381,-0.6997 5.827,-1.1946 0.2841,-10.527 0.5644,-20.8962 0.8565,-31.7101 -1.2556,0.0173 -2.5092,0.1037 -3.7556,0.2586 -9.0575,1.652 -18.109,3.306 -27.1461,5.0538 -8.201,1.5838 -16.4024,2.7626 -24.7274,0.9885 C 11.1863,59.7855 6.93172,58.3993 3.40128,55.4129 1.42439,53.7393 -0.102926,51.7197 0.899958,48.9808 1.3508,47.6143 2.19935,46.4134 3.33655,45.5318 c 2.24741,-1.4716 4.64203,-2.7047 7.14535,-3.6794 8.6486,-3.3919 16.6224,-7.8571 23.5625,-14.0877 1.503,-1.3494 3.0942,-2.6023 4.6661,-3.8723 3.3618,-2.7186 7.1422,-3.5088 11.3815,-2.6457 6.3665,1.2949 11.4904,4.9099 16.5744,8.6189 1.4118,1.0285 2.7277,2.2001 4.4158,3.5731 z m 5.4785,14.3988 c 5.739,0.8723 11.0599,1.5752 16.3428,2.5072 8.8365,1.5654 17.6365,3.1714 26.6945,2.8616 6.753,-0.2051 13.336,-2.1719 19.094,-5.7055 0.796,-0.5758 1.553,-1.2051 2.265,-1.8831 -2.737,-0.571 -5.038,-0.9227 -7.265,-1.5377 -9.416,-2.5997 -17.842,-7.1653 -25.63,-13.0001 -5.811,-4.3535 -9.9426,-4.4697 -16.036,-0.5605 -0.9497,0.5966 -1.866,1.2442 -2.7455,1.9401 -3.4904,2.815 -6.8863,5.7521 -10.4627,8.4517 -1.4078,1.0619 -2.1212,2.1659 -2.0563,3.8979 -0.0131,1.013 -0.0794,2.0245 -0.2008,3.0303 z M 71.6277,43.927 C 69.0253,41.9882 66.9841,40.6394 65.139,39.0609 60.8358,35.288 55.9877,32.1867 50.7582,29.8617 47.065,28.2648 43.7109,28.4887 40.5671,31.481 31.8424,39.7843 21.6516,45.7602 10.3678,49.9201 c -1.12387,0.5142 -2.21615,1.0947 -3.27108,1.7386 2.21317,0.9681 3.70178,1.7334 5.26518,2.2834 6.9722,2.4547 14.09,2.3628 21.2284,0.9438 8.7949,-1.7459 17.5531,-3.6427 26.3454,-5.382 3.8186,-0.7561 7.6791,-1.2837 11.692,-1.9427 z m -1.549,52.581 c -4.988,0.0079 -12.8582,3.737 -15.5446,7.245 -2.9653,3.872 -3.0028,8.663 0.6871,11.362 3.1767,2.324 6.9794,3.884 10.6693,5.382 1.9855,0.804 3.3927,-0.453 3.5161,-2.645 0.2809,-5.02 0.4805,-10.042 0.6564,-15.068 0.0767,-2.093 0.0157,-4.1882 0.0157,-6.276 z m 7.055,21.089 c 2.5092,-0.941 4.8464,-1.679 7.0648,-2.679 3.5994,-1.623 6.9125,-3.726 9.4605,-6.817 1.7806,-2.161 1.7721,-3.422 -0.2567,-5.192 -4.576,-3.9929 -10.0977,-5.341 -16.2686,-5.7151 z m -8.7864,12.864 c -4.1349,-0.538 -8.7917,2.56 -9.5005,5.859 -0.174,0.713 -0.1371,1.462 0.1061,2.154 0.2431,0.693 0.682,1.3 1.2636,1.749 2.1915,1.857 4.4355,3.652 7.0281,5.776 0.3866,-5.448 0.7378,-10.396 1.1027,-15.535 z M 79.4814,13.9481 C 79.5123,9.64184 77.9607,8.25579 73.283,7.94796 71.1702,7.80882 69.7197,8.88581 69.1762,12.6145 c -0.4377,2.9994 2.0209,5.185 5.8342,5.4266 3.5016,0.2251 4.4493,-0.6399 4.471,-4.0903 z M 75.714,133.389 c -0.2284,2.242 -0.5428,4.447 -0.6563,6.662 -0.1129,2.252 -0.025,4.513 -0.025,7.103 2.7659,-1.583 3.9899,-3.73 4.9035,-6.17 1.549,-4.126 0.4739,-6.188 -4.2222,-7.592 z"
     fill="#000000"
     id="path62" /></g><g
   id="g788">
	<circle
   class="st0"
   cx="8.4"
   cy="12.7"
   r="2"
   id="circle768" />
	<g
   id="g786">
		<path
   class="st0"
   d="M4.8,19.7h15.7l-2.2-6.2l-1.4,1.8l-2.5-3.6l-3.2,5C11.1,16.7,5.1,15.8,4.8,19.7z"
   id="path770" />
		<path
   class="st1"
   d="M22,22.7H3.4c-0.5,0-0.9-0.4-0.9-0.9v-13c0-0.5,0.4-0.9,0.9-0.9H22c0.5,0,0.9,0.4,0.9,0.9v13    C22.9,22.3,22.5,22.7,22,22.7z M3.5,21.7h18.4V8.8H3.5V21.7z"
   id="path772" />
		<path
   class="st0"
   d="M27.5,19.7h15.7L41,13.5l-1.4,1.8L37,11.6l-3.2,5C33.8,16.7,27.7,15.8,27.5,19.7z"
   id="path774" />
		<circle
   class="st0"
   cx="31.1"
   cy="12.7"
   r="2"
   id="circle776" />
		<path
   class="st1"
   d="M44.6,22.7H26c-0.5,0-0.9-0.4-0.9-0.9v-13c0-0.5,0.4-0.9,0.9-0.9h18.6c0.5,0,0.9,0.4,0.9,0.9v13    C45.5,22.3,45.1,22.7,44.6,22.7z M26.1,21.7h18.4V8.8H26.1V21.7z"
   id="path778" />
		<path
   class="st0"
   d="M27.5,37.2h15.7L41,31l-1.4,1.8L37,29.1l-3.2,5C33.8,34.2,27.7,33.3,27.5,37.2z"
   id="path780" />
		<circle
   class="st0"
   cx="31.1"
   cy="30.2"
   r="2"
   id="circle782" />
		<path
   class="st1"
   d="M44.6,40.2H26c-0.5,0-0.9-0.4-0.9-0.9v-13c0-0.5,0.4-0.9,0.9-0.9h18.6c0.5,0,0.9,0.4,0.9,0.9v13    C45.5,39.8,45.1,40.2,44.6,40.2z M26.1,39.2h18.4V26.3H26.1V39.2z"
   id="path784" />
	</g>
</g>
</svg>
